<?xml version="1.0" standalone="no"?>
<!DOCTYPE svg PUBLIC "-//W3C//DTD SVG 20010904//EN"
 "http://www.w3.org/TR/2001/REC-SVG-20010904/DTD/svg10.dtd">
<svg version="1.0" xmlns="http://www.w3.org/2000/svg"
 width="100.000000pt" height="100.000000pt" viewBox="0 0 100.000000 100.000000"
 preserveAspectRatio="xMidYMid meet">
<metadata>
Created by potrace 1.10, written by Peter Selinger 2001-2011
</metadata>
<g transform="translate(0.000000,100.000000) scale(0.100000,-0.100000)"
fill="#000000" stroke="none">
<path d="M406 858 c-28 -40 -15 -88 24 -88 24 0 50 32 50 61 0 49 -47 66 -74
27z m42 -35 c-4 -22 -22 -20 -26 1 -2 10 3 16 13 16 10 0 15 -7 13 -17z"/>
<path d="M304 846 c-10 -26 1 -51 21 -51 23 0 32 30 15 50 -16 19 -29 19 -36
1z"/>
<path d="M224 826 c-7 -19 12 -46 33 -46 21 0 13 54 -10 58 -9 2 -20 -4 -23
-12z"/>
<path d="M164 785 c-9 -22 22 -53 37 -38 15 15 7 47 -14 51 -9 2 -20 -4 -23
-13z"/>
<path d="M251 738 c-31 -17 -52 -38 -69 -69 -21 -38 -23 -53 -18 -111 11 -121
54 -211 116 -243 40 -21 72 -19 104 6 34 27 34 72 1 121 -29 43 -32 80 -8 99
31 26 73 92 73 115 0 60 -35 92 -108 100 -37 5 -56 1 -91 -18z m147 -34 c35
-24 29 -64 -20 -119 -51 -57 -56 -101 -20 -153 46 -64 4 -124 -63 -91 -56 27
-90 100 -102 215 -7 71 11 120 55 146 35 22 120 23 150 2z"/>
<path d="M124 735 c-8 -20 4 -35 27 -35 23 0 24 13 3 34 -19 20 -23 20 -30 1z"/>
<path d="M532 668 c-18 -18 -14 -63 6 -81 50 -45 96 14 56 71 -17 24 -43 29
-62 10z m43 -46 c0 -18 -20 -15 -23 4 -3 10 1 15 10 12 7 -3 13 -10 13 -16z"/>
<path d="M661 646 c-18 -21 -9 -51 14 -51 15 0 20 7 20 29 0 33 -16 44 -34 22z"/>
<path d="M737 633 c-13 -12 -7 -53 7 -53 20 0 39 27 32 45 -6 15 -28 20 -39 8z"/>
<path d="M797 593 c-11 -10 -8 -41 4 -49 16 -9 43 21 36 40 -7 16 -28 21 -40
9z"/>
<path d="M623 552 c-52 -15 -82 -66 -69 -115 3 -13 24 -44 46 -69 47 -54 49
-75 15 -126 -33 -49 -33 -94 1 -121 31 -25 64 -27 104 -6 60 31 106 127 116
243 5 58 3 73 -18 111 -38 71 -119 105 -195 83z m133 -54 c43 -33 44 -36 44
-125 0 -130 -43 -221 -112 -238 -62 -15 -86 34 -48 97 33 54 27 99 -20 153
-70 80 -47 135 56 135 38 0 59 -6 80 -22z"/>
<path d="M846 535 c-22 -22 -20 -35 4 -35 23 0 38 26 23 41 -7 7 -16 5 -27 -6z"/>
</g>
</svg>
